ground reactions
version=1
nRows=33
nColumns=19
inDegrees=no
endheader
time	ground_force_l_vx	ground_force_l_vy	ground_force_l_vz	ground_force_l_px	ground_force_l_py	ground_force_l_pz	ground_torque_l_x	ground_torque_l_y	ground_torque_l_z	ground_force_r_vx	ground_force_r_vy	ground_force_r_vz	ground_force_r_px	ground_force_r_py	ground_force_r_pz	ground_torque_r_x	ground_torque_r_y	ground_torque_r_z
1.341667	51.755144	630.242534	31.573696	0.584657	0.000000	-0.562285	0.000000	-5.691241	0.000000	0.008801	0.048086	-0.002981	-0.000253	-0.000000	0.000077	0.000000	-0.000500	0.000000
1.342708	52.497852	632.173562	31.455915	0.583432	0.000000	-0.562210	0.000000	-5.729746	0.000000	0.010418	0.056809	-0.003514	-0.000196	-0.000000	0.000054	0.000000	-0.000591	0.000000
1.343750	53.243241	634.081520	31.335682	0.582215	0.000000	-0.562134	0.000000	-5.767591	0.000000	0.012323	0.067052	-0.004137	-0.000098	-0.000000	0.000017	0.000000	-0.000698	0.000000
1.344792	53.991453	635.964682	31.213353	0.581005	0.000000	-0.562056	0.000000	-5.804762	0.000000	0.014566	0.079070	-0.004865	0.000038	0.000000	-0.000032	0.000000	-0.000824	0.000000
1.345833	54.742626	637.821329	31.089283	0.579803	0.000000	-0.561978	0.000000	-5.841247	0.000000	0.017201	0.093157	-0.005715	0.000208	0.000000	-0.000091	0.000000	-0.000972	0.000000
1.346875	55.496898	639.649761	30.963823	0.578608	0.000000	-0.561898	0.000000	-5.877036	0.000000	0.020294	0.109659	-0.006705	0.000401	0.000000	-0.000155	0.000000	-0.001146	0.000000
1.347917	56.254393	641.448289	30.837322	0.577420	0.000000	-0.561818	0.000000	-5.912123	0.000000	0.023921	0.128979	-0.007859	0.000599	0.000000	-0.000219	0.000000	-0.001350	0.000000
1.348958	57.015228	643.215245	30.710116	0.576239	0.000000	-0.561736	0.000000	-5.946501	0.000000	0.028169	0.151586	-0.009204	0.000780	0.000000	-0.000274	0.000000	-0.001590	0.000000
1.350000	57.779498	644.948976	30.582538	0.575065	0.000000	-0.561654	0.000000	-5.980167	0.000000	0.033140	0.178025	-0.010771	0.000918	0.000000	-0.000311	0.000000	-0.001870	0.000000
1.351042	58.547278	646.647848	30.454903	0.573897	0.000000	-0.561572	0.000000	-6.013120	0.000000	0.038954	0.208932	-0.012594	0.000983	0.000000	-0.000321	0.000000	-0.002199	0.000000
1.352083	59.318616	648.310247	30.327517	0.572736	0.000000	-0.561489	0.000000	-6.045356	0.000000	0.045747	0.245041	-0.014716	0.000948	0.000000	-0.000295	0.000000	-0.002583	0.000000
1.353125	60.093531	649.934580	30.200672	0.571581	0.000000	-0.561407	0.000000	-6.076877	0.000000	0.053680	0.287200	-0.017183	0.000788	0.000000	-0.000226	0.000000	-0.003031	0.000000
1.354167	60.872009	651.519272	30.074641	0.570433	0.000000	-0.561324	0.000000	-6.107682	0.000000	0.062940	0.336385	-0.020050	0.000488	0.000000	-0.000111	0.000000	-0.003555	0.000000
1.355208	61.653996	653.062771	29.949683	0.569291	0.000000	-0.561241	0.000000	-6.137771	0.000000	0.073742	0.393716	-0.023378	0.000044	-0.000000	0.000051	0.000000	-0.004165	0.000000
1.356250	62.439403	654.563544	29.826038	0.568154	0.000000	-0.561159	0.000000	-6.167146	0.000000	0.086333	0.460472	-0.027237	-0.000530	-0.000000	0.000252	0.000000	-0.004876	0.000000
1.357292	63.228100	656.020080	29.703926	0.567024	0.000000	-0.561078	0.000000	-6.195806	0.000000	0.101000	0.538108	-0.031703	-0.001200	-0.000000	0.000478	0.000000	-0.005703	0.000000
1.358333	64.019917	657.430889	29.583550	0.565900	0.000000	-0.560996	0.000000	-6.223750	0.000000	0.118070	0.628277	-0.036865	-0.001914	-0.000000	0.000711	0.000000	-0.006664	0.000000
1.359375	64.814644	658.794502	29.465088	0.564781	0.000000	-0.560916	0.000000	-6.250977	0.000000	0.137917	0.732849	-0.042818	-0.002597	-0.000000	0.000922	0.000000	-0.007779	0.000000
1.360417	65.612036	660.109468	29.348698	0.563669	0.000000	-0.560837	0.000000	-6.277485	0.000000	0.160964	0.853931	-0.049669	-0.003158	-0.000000	0.001082	0.000000	-0.009072	0.000000
1.361458	66.411809	661.374362	29.234516	0.562562	0.000000	-0.560758	0.000000	-6.303269	0.000000	0.187694	0.993899	-0.057535	-0.003496	-0.000000	0.001156	0.000000	-0.010568	0.000000
1.362500	67.213652	662.587776	29.122651	0.561461	0.000000	-0.560680	0.000000	-6.328323	0.000000	0.218648	1.155418	-0.066547	-0.003507	-0.000000	0.001112	0.000000	-0.012298	0.000000
1.363542	68.017224	663.748324	29.013188	0.560366	0.000000	-0.560602	0.000000	-6.352639	0.000000	0.254437	1.341481	-0.076844	-0.003099	-0.000000	0.000922	0.000000	-0.014295	0.000000
1.364583	68.822165	664.854642	28.906182	0.559277	0.000000	-0.560526	0.000000	-6.376207	0.000000	0.295743	1.555437	-0.088583	-0.002205	-0.000000	0.000567	0.000000	-0.016597	0.000000
1.365625	69.628097	665.905390	28.801661	0.558193	0.000000	-0.560449	0.000000	-6.399014	0.000000	0.343331	1.801031	-0.101931	-0.000799	-0.000000	0.000047	0.000000	-0.019245	0.000000
1.366667	70.434632	666.899249	28.699620	0.557115	0.000000	-0.560373	0.000000	-6.421045	0.000000	0.398052	2.082446	-0.117073	0.001092	0.000000	-0.000623	0.000000	-0.022289	0.000000
1.367708	71.241381	667.834924	28.600022	0.556042	0.000000	-0.560298	0.000000	-6.442283	0.000000	0.460851	2.404344	-0.134209	0.003373	0.000000	-0.001403	0.000000	-0.025781	0.000000
1.368750	72.047957	668.711147	28.502792	0.554974	0.000000	-0.560222	0.000000	-6.462707	0.000000	0.532778	2.771911	-0.153554	0.005874	0.000000	-0.002228	0.000000	-0.029778	0.000000
1.369792	72.853981	669.526674	28.407822	0.553912	0.000000	-0.560146	0.000000	-6.482294	0.000000	0.614995	3.190899	-0.175343	0.008352	0.000000	-0.003010	0.000000	-0.034347	0.000000
1.370833	73.659091	670.280291	28.314959	0.552854	0.000000	-0.560070	0.000000	-6.501019	0.000000	0.708786	3.667667	-0.199825	0.010496	0.000000	-0.003641	0.000000	-0.039559	0.000000
1.371875	74.462945	670.970810	28.224011	0.551802	0.000000	-0.559993	0.000000	-6.518854	0.000000	0.815563	4.209213	-0.227266	0.011950	0.000000	-0.004001	0.000000	-0.045492	0.000000
1.372917	75.265229	671.597074	28.134741	0.550754	0.000000	-0.559916	0.000000	-6.535767	0.000000	0.936880	4.823205	-0.257943	0.012340	0.000000	-0.003970	0.000000	-0.052232	0.000000
1.373958	76.065658	672.157959	28.046869	0.549710	0.000000	-0.559837	0.000000	-6.551727	0.000000	1.074434	5.517986	-0.292144	0.011317	0.000000	-0.003440	0.000000	-0.059870	0.000000
1.375000	76.863981	672.652369	27.960065	0.548671	0.000000	-0.559757	0.000000	-6.566699	0.000000	1.230074	6.302574	-0.330158	0.008609	0.000000	-0.002336	0.000000	-0.068507	0.000000
